Patient4_TMGait_0pt4_03_left_37_GRF.mot
version=1
nRows=78
nColumns=19
inDegrees=no
endheader
time	F1x	F1y	F1z	M1x	M1y	M1z	F2x	F2y	F2z	M2x	M2y	M2z	EC1x	EC1y	EC1z	EC2x	EC2y	EC2z
49.05	-20.238	-4.7504	1.4367	0.039208	-5.2905	-3.8406	-9.6181	740.4361	-65.7437	278.5582	74.0895	813.8994	-0.0592	0.0182	-0.0073	-0.0462	0.0165	0.9585
49.0632	-13.651	-2.8215	1.0619	-0.12586	-3.6856	-2.0555	-10.6854	735.0735	-63.6331	276.4936	72.7746	806.731	-0.0592	0.0182	-0.0073	-0.0462	0.0165	0.9585
49.0764	-8.0943	-1.1431	0.7171	-0.27172	-2.3054	-0.50784	-11.3321	731.3288	-61.807	274.9247	71.4674	801.0571	-0.0592	0.0182	-0.0073	-0.0462	0.0165	0.9585
49.0896	-3.866	0.18538	0.43149	-0.39176	-1.2372	0.70632	-11.5079	729.952	-60.3691	274.1428	70.2319	797.7104	-0.0592	0.0182	-0.0073	-0.0462	0.0165	0.9585
49.1029	-0.94517	1.1529	0.22618	-0.48577	-0.49648	1.5766	-11.2478	731.2189	-59.3239	274.2733	69.0972	797.0106	-0.0592	0.0182	-0.0073	-0.0462	0.0165	0.9585
49.1161	0.85361	1.7945	0.08879	-0.55405	-0.037663	2.1463	-10.5998	734.9462	-58.6033	275.2736	68.0415	798.7665	-0.0592	0.0182	-0.0073	-0.0462	0.0165	0.9585
49.1293	1.7828	2.1447	0.018324	-0.58918	0.18832	2.4461	-9.6162	740.6147	-58.1269	276.9723	67.0353	802.4267	-0.0592	0.0182	-0.0073	-0.0462	0.0165	0.9585
49.1425	2.0804	2.252	-0.0073785	-0.58633	0.24553	2.5219	-8.3489	747.5006	-57.7857	279.1169	66.0197	807.2184	-0.0592	0.0182	-0.0073	-0.0462	0.0165	0.9585
49.1557	1.9709	2.1199	0.011982	-0.53094	0.17732	2.3521	-6.8363	754.7941	-57.4918	281.4171	64.9458	812.2818	-0.0592	0.0182	-0.0073	-0.0462	0.0165	0.9585
49.1689	1.6165	1.7392	0.066209	-0.40886	0.021785	1.9114	-5.1167	761.7312	-57.173	283.5942	63.7696	816.823	-0.0592	0.0182	-0.0073	-0.0462	0.0165	0.9585
49.1821	1.1474	1.0814	0.15527	-0.20256	-0.1982	1.1489	-3.2134	767.6563	-56.8029	285.4111	62.4817	820.1536	-0.0592	0.0182	-0.0073	-0.0462	0.0165	0.9585
49.1954	0.66487	0.10923	0.2697	0.10807	-0.45374	0.013084	-1.1609	772.1153	-56.3722	286.7063	61.088	821.8046	-0.0592	0.0182	-0.0073	-0.0462	0.0165	0.9585
49.2086	0.23868	-1.1989	0.3931	0.53459	-0.70864	-1.5112	1.029	774.8525	-55.8877	287.3943	59.6058	821.5232	-0.0592	0.0182	-0.0073	-0.0462	0.0165	0.9585
49.2218	-0.053068	-2.8114	0.50849	1.0692	-0.91692	-3.3945	3.3305	775.7906	-55.3601	287.4558	58.0569	819.2535	-0.0592	0.0182	-0.0073	-0.0462	0.0165	0.9585
49.235	-0.13489	-4.5838	0.5777	1.6648	-1.0059	-5.4745	5.722	774.9853	-54.8224	286.9156	56.4786	815.0784	-0.0592	0.0182	-0.0073	-0.0462	0.0165	0.9585
49.2482	0.10302	-6.2245	0.55392	2.2213	-0.87517	-7.416	8.1933	772.5733	-54.3241	285.8205	54.9187	809.1642	-0.0592	0.0182	-0.0073	-0.0462	0.0165	0.9585
49.2614	0.7894	-7.2072	0.36424	2.5518	-0.38723	-8.5965	10.7213	768.7539	-53.9273	284.2361	53.4403	801.7489	-0.0592	0.0182	-0.0073	-0.0462	0.0165	0.9585
49.2746	2.065	-6.7268	-0.068567	2.3657	0.60808	-8.0644	13.3131	763.7887	-53.6935	282.2514	52.0992	793.1202	-0.0592	0.0182	-0.0073	-0.0462	0.0165	0.9585
49.2879	4.0778	-3.6687	-0.84254	1.2634	2.2769	-4.4957	15.987	757.9991	-53.6742	279.9748	50.9381	783.6286	-0.0592	0.0182	-0.0073	-0.0462	0.0165	0.9585
49.3011	6.9036	3.3798	-2.046	-1.2536	4.748	3.7942	18.7779	751.6401	-53.8884	277.4907	49.9626	773.5506	-0.0592	0.0182	-0.0073	-0.0462	0.0165	0.9585
49.3143	10.5018	15.9951	-3.7319	-5.7376	8.0637	18.6718	21.683	744.7946	-54.3015	274.8199	49.1321	763.0078	-0.0592	0.0182	-0.0073	-0.0462	0.0165	0.9585
49.3275	14.5739	35.6424	-5.8678	-12.6996	12.0765	41.8956	24.6351	737.2889	-54.8237	271.887	48.3754	751.9068	-0.0592	0.0182	-0.0073	-0.0462	0.0165	0.9585
49.3407	18.4646	63.1995	-8.2713	-22.4397	16.3299	74.5456	27.4696	728.6386	-55.2986	268.5044	47.5903	739.8765	-0.0592	0.0182	-0.0073	-0.0462	0.0165	0.9585
49.3539	21.0099	98.2537	-10.5347	-34.7977	19.9227	116.1832	29.9169	718.0768	-55.5374	264.384	46.6854	726.2835	-0.0592	0.0182	-0.0073	-0.0462	0.0165	0.9585
49.3671	20.7166	138.4039	-11.9872	-48.9036	21.5327	164.0269	31.7233	704.6829	-55.3406	259.1901	45.5638	710.3158	-0.0592	0.0182	-0.0073	-0.0462	0.0165	0.9585
49.3804	16.7928	179.1778	-11.7625	-63.1374	19.8362	212.8246	32.6956	687.6288	-54.5606	252.6287	44.1631	691.2232	-0.0592	0.0182	-0.0073	-0.0462	0.0165	0.9585
49.3936	10.4497	215.7932	-9.0113	-75.7636	14.3158	256.8864	32.8079	666.3754	-53.1481	244.5242	42.4615	668.463	-0.0592	0.0182	-0.0073	-0.0462	0.0165	0.9585
49.4068	3.3567	246.1962	-4.4177	-86.0762	6.3499	293.5608	32.2041	640.9338	-51.1946	234.8944	40.5112	641.9769	-0.0592	0.0182	-0.0073	-0.0462	0.0165	0.9585
49.42	-3.4037	271.5439	1.3496	-94.5054	-2.8628	324.0836	31.1511	611.6669	-48.9231	223.8778	38.4405	612.0107	-0.0592	0.0182	-0.0073	-0.0462	0.0165	0.9585
49.4332	-9.4235	294.6445	7.4722	-102.0767	-12.2399	351.7945	29.9178	579.0133	-46.522	211.6439	36.3354	578.8785	-0.0592	0.0182	-0.0073	-0.0462	0.0165	0.9585
49.4464	-14.632	318.1795	13.5356	-109.7587	-21.2427	379.9038	28.6784	543.3274	-44.0251	198.3386	34.1646	542.8446	-0.0592	0.0182	-0.0073	-0.0462	0.0165	0.9585
49.4596	-19.0961	343.7953	19.0836	-118.1515	-29.3818	410.3207	27.5069	504.8583	-41.31	184.0714	31.7857	504.1091	-0.0592	0.0182	-0.0073	-0.0462	0.0165	0.9585
49.4729	-22.8158	371.9046	24.037	-127.3997	-36.5462	443.4931	26.3532	463.7356	-38.1989	168.9067	29.0456	462.7828	-0.0592	0.0182	-0.0073	-0.0462	0.0165	0.9585
49.4861	-25.6974	402.2474	28.3588	-137.3983	-42.6814	479.0244	25.0565	420.1132	-34.5737	152.9066	25.887	419.0324	-0.0592	0.0182	-0.0073	-0.0462	0.0165	0.9585
49.4993	-27.7055	434.3149	32.3557	-147.9258	-48.1075	516.2844	23.4323	374.3044	-30.4822	136.1762	22.418	373.189	-0.0592	0.0182	-0.0073	-0.0462	0.0165	0.9585
49.5125	-28.7856	467.3848	36.2794	-158.7007	-53.1044	554.3511	21.2814	326.9263	-26.1002	118.9207	18.8662	325.8898	-0.0592	0.0182	-0.0073	-0.0462	0.0165	0.9585
49.5257	-29.077	500.7216	40.5312	-169.4377	-58.1564	592.3647	18.4661	278.95	-21.6957	101.4714	15.5261	278.1123	-0.0592	0.0182	-0.0073	-0.0462	0.0165	0.9585
49.5389	-28.7404	533.8692	45.2161	-179.9823	-63.4414	629.7381	14.9874	231.7192	-17.529	84.2973	12.643	231.177	-0.0592	0.0182	-0.0073	-0.0462	0.0165	0.9585
49.5521	-27.9703	566.856	50.3149	-190.3644	-68.9854	666.4869	10.9976	186.8266	-13.819	67.9633	10.3719	186.6407	-0.0592	0.0182	-0.0073	-0.0462	0.0165	0.9585
49.5654	-26.9431	599.8524	55.5151	-200.6878	-74.496	702.7801	6.8352	145.8311	-10.6879	53.0338	8.712	145.9929	-0.0592	0.0182	-0.0073	-0.0462	0.0165	0.9585
49.5786	-25.7724	632.7854	60.5974	-210.9722	-79.7506	738.5223	2.906	109.9763	-8.1646	39.9623	7.5463	110.4251	-0.0592	0.0182	-0.0073	-0.0462	0.0165	0.9585
49.5918	-24.5787	665.163	65.2733	-221.0944	-84.4699	773.1545	-0.40655	79.9283	-6.1762	28.9991	6.6772	80.5653	-0.0592	0.0182	-0.0073	-0.0462	0.0165	0.9585
49.605	-23.4079	696.0815	69.4563	-230.782	-88.5678	805.668	-2.8948	55.727	-4.6096	20.1708	5.9282	56.4522	-0.0592	0.0182	-0.0073	-0.0462	0.0165	0.9585
49.6182	-22.3005	724.4628	72.9784	-239.7053	-91.8818	834.8865	-4.4969	36.9515	-3.3579	13.3313	5.1786	37.6848	-0.0592	0.0182	-0.0073	-0.0462	0.0165	0.9585
49.6314	-21.2102	749.2263	75.7851	-247.5333	-94.3393	859.6335	-5.2263	22.9085	-2.3523	8.2294	4.3735	23.5905	-0.0592	0.0182	-0.0073	-0.0462	0.0165	0.9585
49.6446	-20.067	769.4636	77.7517	-253.9879	-95.7923	878.9174	-5.1784	12.8284	-1.5417	4.5803	3.4985	13.4324	-0.0592	0.0182	-0.0073	-0.0462	0.0165	0.9585
49.6579	-18.7704	784.4817	78.8903	-258.8499	-96.2154	891.9967	-4.492	5.9691	-0.91502	2.111	2.5946	6.4758	-0.0592	0.0182	-0.0073	-0.0462	0.0165	0.9585
49.6711	-17.2009	793.8919	79.1642	-261.9954	-95.5421	898.4615	-3.4707	1.7213	-0.46196	0.59222	1.757	2.1383	-0.0592	0.0182	-0.0073	-0.0462	0.0165	0.9585
49.6843	-15.3115	797.7096	78.6582	-263.4219	-93.8494	898.3984	-2.4074	-0.53898	-0.1765	-0.20468	1.0814	-0.18568	-0.0592	0.0182	-0.0073	-0.0462	0.0165	0.9585
49.6975	-13.0774	796.3883	77.4219	-263.267	-91.1999	892.3804	-1.4741	-1.4167	-0.020028	-0.49978	0.58911	-1.095	-0.0592	0.0182	-0.0073	-0.0462	0.0165	0.9585
49.7107	-10.5549	790.8083	75.6293	-261.7959	-87.7996	881.505	-0.74062	-1.4217	0.037539	-0.48007	0.2682	-1.1031	-0.0592	0.0182	-0.0073	-0.0462	0.0165	0.9585
49.7239	-7.8069	782.1805	73.4169	-259.3795	-83.8314	867.2074	-0.21196	-0.95542	0.03786	-0.29238	0.074743	-0.63216	-0.0592	0.0182	-0.0073	-0.0462	0.0165	0.9585
49.7371	-4.9633	771.891	70.9993	-256.4427	-79.5693	851.1191	0.11558	-0.28684	0.0081677	-0.037286	-0.023204	0.045423	-0.0592	0.0182	-0.0073	-0.0462	0.0165	0.9585
49.7504	-2.136	761.3504	68.5194	-253.4253	-75.2189	834.8532	0.29879	0.41999	-0.027982	0.22507	-0.063587	0.75361	-0.0592	0.0182	-0.0073	-0.0462	0.0165	0.9585
49.7636	0.57835	751.8665	66.1449	-250.7377	-70.9998	819.8767	0.37036	1.068	-0.065523	0.46207	-0.058911	1.403	-0.0592	0.0182	-0.0073	-0.0462	0.0165	0.9585
49.7768	3.1318	744.5114	63.9619	-248.7214	-67.0363	807.3615	0.36689	1.5936	-0.097491	0.65617	-0.025793	1.9331	-0.0592	0.0182	-0.0073	-0.0462	0.0165	0.9585
49.79	5.5298	739.9702	62.0763	-247.5949	-63.4472	798.0281	0.32285	1.9794	-0.13226	0.80195	0.033666	2.3294	-0.0592	0.0182	-0.0073	-0.0462	0.0165	0.9585
49.8032	7.8229	738.4923	60.5441	-247.4357	-60.2849	792.1066	0.25411	2.2318	-0.16716	0.89914	0.11331	2.5971	-0.0592	0.0182	-0.0073	-0.0462	0.0165	0.9585
49.8164	10.1063	739.8963	59.4174	-248.1752	-57.5788	789.3434	0.1756	2.327	-0.2069	0.93798	0.2118	2.6975	-0.0592	0.0182	-0.0073	-0.0462	0.0165	0.9585
49.8296	12.4773	743.6884	58.7009	-249.6378	-55.3067	789.1499	0.079406	2.2514	-0.24972	0.90879	0.32405	2.613	-0.0592	0.0182	-0.0073	-0.0462	0.0165	0.9585
49.8429	15.0258	749.1932	58.3854	-251.5901	-53.4316	790.76	-0.017993	1.9601	-0.30275	0.79198	0.44924	2.2781	-0.0592	0.0182	-0.0073	-0.0462	0.0165	0.9585
49.8561	17.803	755.6625	58.4459	-253.7732	-51.9068	793.3694	-0.13036	1.3867	-0.36067	0.56142	0.57989	1.6192	-0.0592	0.0182	-0.0073	-0.0462	0.0165	0.9585
49.8693	20.8216	762.3515	58.8415	-255.9269	-50.6846	796.2073	-0.24159	0.45345	-0.42325	0.18775	0.70577	0.53458	-0.0592	0.0182	-0.0073	-0.0462	0.0165	0.9585
49.8825	24.0478	768.5561	59.5275	-257.8059	-49.7263	798.5655	-0.31887	-0.89016	-0.47634	-0.34972	0.80101	-1.0545	-0.0592	0.0182	-0.0073	-0.0462	0.0165	0.9585
49.8957	27.4367	773.6477	60.4446	-259.1922	-48.9892	799.831	-0.33396	-2.6548	-0.50416	-1.0541	0.83441	-3.1632	-0.0592	0.0182	-0.0073	-0.0462	0.0165	0.9585
49.9089	30.8983	777.0776	61.532	-259.899	-48.4429	799.4957	-0.2221	-4.7635	-0.47999	-1.8895	0.75025	-5.6997	-0.0592	0.0182	-0.0073	-0.0462	0.0165	0.9585
49.9221	34.3196	778.4096	62.7358	-259.7839	-48.0745	797.1819	0.086612	-6.9445	-0.37156	-2.7493	0.4791	-8.3286	-0.0592	0.0182	-0.0073	-0.0462	0.0165	0.9585
49.9354	37.5545	777.3448	63.9888	-258.7553	-47.8668	792.6715	0.68186	-8.7127	-0.12212	-3.4383	-0.079385	-10.4683	-0.0592	0.0182	-0.0073	-0.0462	0.0165	0.9585
49.9486	40.4444	773.6904	65.225	-256.7553	-47.8139	785.8725	1.6338	-9.2535	0.33075	-3.6333	-1.0265	-11.1315	-0.0592	0.0182	-0.0073	-0.0462	0.0165	0.9585
49.9618	42.8444	767.3478	66.376	-253.7547	-47.9046	776.7779	3.017	-7.3581	1.0583	-2.8572	-2.4659	-8.8597	-0.0592	0.0182	-0.0073	-0.0462	0.0165	0.9585
49.975	44.6489	758.3789	67.4047	-249.7745	-48.141	765.5287	4.8404	-1.4311	2.1145	-0.48017	-4.454	-1.7227	-0.0592	0.0182	-0.0073	-0.0462	0.0165	0.9585
49.9882	45.8154	746.9877	68.258	-244.8871	-48.485	752.3768	6.9968	10.4377	3.516	4.2499	-6.9488	12.5937	-0.0592	0.0182	-0.0073	-0.0462	0.0165	0.9585
50.0014	46.3459	733.3919	68.8736	-239.1794	-48.871	737.5523	9.2355	30.2493	5.1845	12.1164	-9.7347	36.5065	-0.0592	0.0182	-0.0073	-0.0462	0.0165	0.9585
50.0146	46.3201	717.6744	69.1199	-232.7106	-49.1428	721.1068	11.0316	59.6511	6.9082	23.7566	-12.335	72.017	-0.0592	0.0182	-0.0073	-0.0462	0.0165	0.9585
50.0279	45.8422	699.6687	68.8409	-225.4729	-49.1116	702.8254	11.5423	99.1632	8.2708	39.3589	-13.9056	119.7639	-0.0592	0.0182	-0.0073	-0.0462	0.0165	0.9585
50.0411	45.0272	678.9355	67.8349	-217.3775	-48.5435	682.2031	9.6169	147.2288	8.6023	58.2816	-13.1986	177.894	-0.0592	0.0182	-0.0073	-0.0462	0.0165	0.9585
50.0543	43.9697	654.8963	65.9321	-208.2958	-47.2398	658.5646	4.6741	199.7253	7.1955	78.8571	-9.1766	241.4894	-0.0592	0.0182	-0.0073	-0.0462	0.0165	0.9585
50.0675	42.759	627.1385	63.04	-198.158	-45.0801	631.3751	-2.5029	250.6538	3.8025	98.7046	-1.9296	303.3149	-0.0592	0.0182	-0.0073	-0.0462	0.0165	0.9585
